<svg width="36" height="36" viewBox="0 0 36 36" fill="none" xmlns="http://www.w3.org/2000/svg">
<path d="M3 15L16.1259 4.49925C17.2215 3.62273 18.7785 3.62273 19.8741 4.49925L33 15" stroke="#5470F2" stroke-width="1.71215" stroke-linecap="round" stroke-linejoin="round"/>
<path d="M14.2164 6.07415L8.21645 10.9492C7.12707 11.8343 6.58237 12.2768 6.29118 12.8886C6 13.5004 6 14.2022 6 15.6059V21C6 26.6568 6 29.4854 7.75735 31.2426C9.51472 33 12.3431 33 18 33C23.6568 33 26.4853 33 28.2426 31.2426C30 29.4854 30 26.6568 30 21V15.6059C30 14.2022 30 13.5004 29.7089 12.8886C29.4176 12.2768 28.8729 11.8343 27.7836 10.9492L21.7836 6.07415C19.9713 4.60166 19.0651 3.86542 18 3.86542C16.9349 3.86542 16.0287 4.60166 14.2164 6.07415Z" stroke="#5470F2" stroke-width="2"/>
<path d="M14.625 24.375H21.375" stroke="#5470F2" stroke-width="1.71215" stroke-linecap="round"/>
</svg>
