<svg width="318" height="318" viewBox="0 0 318 318" fill="none" xmlns="http://www.w3.org/2000/svg">
<mask id="mask0_708_2356" style="mask-type:luminance" maskUnits="userSpaceOnUse" x="0" y="0" width="318" height="318">
<path fill-rule="evenodd" clip-rule="evenodd" d="M0.253906 0.0765076H317.283V317.106H0.253906V0.0765076Z" fill="white"/>
</mask>
<g mask="url(#mask0_708_2356)">
<path fill-rule="evenodd" clip-rule="evenodd" d="M158.769 0.0765076C71.2236 0.0765076 0.253906 71.0462 0.253906 158.591C0.253906 246.136 71.2236 317.106 158.769 317.106C246.314 317.106 317.283 246.136 317.283 158.591C317.283 71.0462 246.314 0.0765076 158.769 0.0765076Z" fill="#EFF3F9"/>
</g>
<path fill-rule="evenodd" clip-rule="evenodd" d="M121.049 263.917C109.663 263.917 100.433 254.687 100.433 243.301C100.433 231.915 109.663 222.685 121.049 222.685C132.435 222.685 141.665 231.915 141.665 243.301C141.665 254.687 132.435 263.917 121.049 263.917Z" fill="white"/>
<path fill-rule="evenodd" clip-rule="evenodd" d="M79.3585 221.248C76.0351 221.248 73.3413 218.554 73.3413 215.23C73.3413 211.907 76.0351 209.212 79.3585 209.212C82.6827 209.212 85.3765 211.907 85.3765 215.23C85.3765 218.554 82.6827 221.248 79.3585 221.248Z" fill="white"/>
<path fill-rule="evenodd" clip-rule="evenodd" d="M178.051 251.321C175.836 251.321 174.041 249.525 174.041 247.311C174.041 245.096 175.836 243.301 178.051 243.301C180.265 243.301 182.06 245.096 182.06 247.311C182.06 249.525 180.265 251.321 178.051 251.321Z" fill="white"/>
<path fill-rule="evenodd" clip-rule="evenodd" d="M233.542 61.9914C231.328 61.9914 229.533 60.1964 229.533 57.9818C229.533 55.7672 231.328 53.9722 233.542 53.9722C235.757 53.9722 237.552 55.7672 237.552 57.9818C237.552 60.1964 235.757 61.9914 233.542 61.9914Z" fill="white"/>
<path fill-rule="evenodd" clip-rule="evenodd" d="M215.585 98.4226H224.564V97.641C224.564 95.0031 222.425 92.8645 219.786 92.8645H194.016C191.378 92.8645 189.24 95.0031 189.24 97.641V173.816H209.268V104.74C209.268 101.251 212.096 98.4226 215.585 98.4226Z" fill="#E0E8F6"/>
<mask id="mask1_708_2356" style="mask-type:luminance" maskUnits="userSpaceOnUse" x="0" y="0" width="318" height="318">
<path fill-rule="evenodd" clip-rule="evenodd" d="M0.253906 317.106H317.283V0.076355H0.253906V317.106Z" fill="white"/>
</mask>
<g mask="url(#mask1_708_2356)">
<path fill-rule="evenodd" clip-rule="evenodd" d="M162.127 173.816H184.029V107.913H162.127V173.816Z" fill="#D0DBF0"/>
<path fill-rule="evenodd" clip-rule="evenodd" d="M216.521 89.2416H197.283C196.547 89.2416 195.951 88.646 195.951 87.9102V80.1036C195.951 79.3687 196.547 78.7722 197.283 78.7722H216.521C217.257 78.7722 217.853 79.3687 217.853 80.1036V87.9102C217.853 88.646 217.257 89.2416 216.521 89.2416Z" fill="#E0E8F6"/>
<path fill-rule="evenodd" clip-rule="evenodd" d="M157.382 173.816H112.792V61.6185C112.792 59.1565 115.106 57.3496 117.496 57.9451L154.512 67.1793C156.199 67.5999 157.382 69.1145 157.382 70.8527V173.816Z" fill="#D0DBF0"/>
<path fill-rule="evenodd" clip-rule="evenodd" d="M93.0264 173.816V135.035C93.0264 131.557 95.8448 128.738 99.323 128.738H106.466V173.816H93.0264Z" fill="#E0E8F6"/>
<path fill-rule="evenodd" clip-rule="evenodd" d="M205.32 166.435C204.397 166.435 203.648 165.686 203.648 164.762V105.895C203.648 104.97 204.397 104.223 205.32 104.223C206.244 104.223 206.993 104.97 206.993 105.895V164.762C206.993 165.686 206.244 166.435 205.32 166.435Z" fill="#C0CBE2"/>
<path fill-rule="evenodd" clip-rule="evenodd" d="M196.042 166.435C195.118 166.435 194.369 165.686 194.369 164.762V105.895C194.369 104.97 195.118 104.223 196.042 104.223C196.965 104.223 197.714 104.97 197.714 105.895V164.762C197.714 165.686 196.965 166.435 196.042 166.435Z" fill="#C0CBE2"/>
<path fill-rule="evenodd" clip-rule="evenodd" d="M148.926 84.007H122.527C121.081 84.007 119.91 82.8351 119.91 81.3901C119.91 79.9443 121.081 78.7724 122.527 78.7724H148.926C150.372 78.7724 151.543 79.9443 151.543 81.3901C151.543 82.8351 150.372 84.007 148.926 84.007Z" fill="#C1CAE7"/>
<path fill-rule="evenodd" clip-rule="evenodd" d="M148.926 95.4814H122.527C121.081 95.4814 119.91 94.3094 119.91 92.8645C119.91 91.4186 121.081 90.2467 122.527 90.2467H148.926C150.372 90.2467 151.543 91.4186 151.543 92.8645C151.543 94.3094 150.372 95.4814 148.926 95.4814Z" fill="#C1CAE7"/>
<path fill-rule="evenodd" clip-rule="evenodd" d="M148.926 106.956H122.527C121.081 106.956 119.91 105.784 119.91 104.339C119.91 102.894 121.081 101.722 122.527 101.722H148.926C150.372 101.722 151.543 102.894 151.543 104.339C151.543 105.784 150.372 106.956 148.926 106.956Z" fill="#C1CAE7"/>
<path fill-rule="evenodd" clip-rule="evenodd" d="M148.926 118.431H122.527C121.081 118.431 119.91 117.259 119.91 115.814C119.91 114.368 121.081 113.196 122.527 113.196H148.926C150.372 113.196 151.543 114.368 151.543 115.814C151.543 117.259 150.372 118.431 148.926 118.431Z" fill="#C1CAE7"/>
<path fill-rule="evenodd" clip-rule="evenodd" d="M148.926 129.905H122.527C121.081 129.905 119.91 128.733 119.91 127.288C119.91 125.842 121.081 124.67 122.527 124.67H148.926C150.372 124.67 151.543 125.842 151.543 127.288C151.543 128.733 150.372 129.905 148.926 129.905Z" fill="#C1CAE7"/>
<path fill-rule="evenodd" clip-rule="evenodd" d="M148.926 141.38H122.527C121.081 141.38 119.91 140.208 119.91 138.762C119.91 137.317 121.081 136.145 122.527 136.145H148.926C150.372 136.145 151.543 137.317 151.543 138.762C151.543 140.208 150.372 141.38 148.926 141.38Z" fill="#C1CAE7"/>
<path fill-rule="evenodd" clip-rule="evenodd" d="M148.926 152.854H122.527C121.081 152.854 119.91 151.682 119.91 150.237C119.91 148.792 121.081 147.62 122.527 147.62H148.926C150.372 147.62 151.543 148.792 151.543 150.237C151.543 151.682 150.372 152.854 148.926 152.854Z" fill="#C1CAE7"/>
<path fill-rule="evenodd" clip-rule="evenodd" d="M148.926 164.329H122.527C121.081 164.329 119.91 163.157 119.91 161.712C119.91 160.266 121.081 159.095 122.527 159.095H148.926C150.372 159.095 151.543 160.266 151.543 161.712C151.543 163.157 150.372 164.329 148.926 164.329Z" fill="#C1CAE7"/>
<path fill-rule="evenodd" clip-rule="evenodd" d="M82.7406 173.816H47.4165V104.133C47.4165 100.979 49.9729 98.4223 53.1267 98.4223H77.0313C80.1842 98.4223 82.7406 100.979 82.7406 104.133V173.816Z" fill="#E0E8F6"/>
<path fill-rule="evenodd" clip-rule="evenodd" d="M76.0531 113.447H54.1057C52.8761 113.447 51.8792 112.451 51.8792 111.221V111.137C51.8792 109.907 52.8761 108.91 54.1057 108.91H76.0531C77.2818 108.91 78.2787 109.907 78.2787 111.137V111.221C78.2787 112.451 77.2818 113.447 76.0531 113.447Z" fill="#C1CAE7"/>
<path fill-rule="evenodd" clip-rule="evenodd" d="M76.0531 123.39H54.1057C52.8761 123.39 51.8792 122.394 51.8792 121.164V121.08C51.8792 119.85 52.8761 118.854 54.1057 118.854H76.0531C77.2818 118.854 78.2787 119.85 78.2787 121.08V121.164C78.2787 122.394 77.2818 123.39 76.0531 123.39Z" fill="#C1CAE7"/>
<path fill-rule="evenodd" clip-rule="evenodd" d="M76.0531 133.333H54.1057C52.8761 133.333 51.8792 132.338 51.8792 131.108V131.024C51.8792 129.794 52.8761 128.797 54.1057 128.797H76.0531C77.2818 128.797 78.2787 129.794 78.2787 131.024V131.108C78.2787 132.338 77.2818 133.333 76.0531 133.333Z" fill="#C1CAE7"/>
<path fill-rule="evenodd" clip-rule="evenodd" d="M76.0531 143.277H54.1057C52.8761 143.277 51.8792 142.281 51.8792 141.051V140.967C51.8792 139.737 52.8761 138.74 54.1057 138.74H76.0531C77.2818 138.74 78.2787 139.737 78.2787 140.967V141.051C78.2787 142.281 77.2818 143.277 76.0531 143.277Z" fill="#C1CAE7"/>
<path fill-rule="evenodd" clip-rule="evenodd" d="M76.0531 153.22H54.1057C52.8761 153.22 51.8792 152.223 51.8792 150.995V150.91C51.8792 149.681 52.8761 148.684 54.1057 148.684H76.0531C77.2818 148.684 78.2787 149.681 78.2787 150.91V150.995C78.2787 152.223 77.2818 153.22 76.0531 153.22Z" fill="#C1CAE7"/>
<path fill-rule="evenodd" clip-rule="evenodd" d="M76.0531 163.163H54.1057C52.8761 163.163 51.8792 162.167 51.8792 160.938V160.853C51.8792 159.625 52.8761 158.628 54.1057 158.628H76.0531C77.2818 158.628 78.2787 159.625 78.2787 160.853V160.938C78.2787 162.167 77.2818 163.163 76.0531 163.163Z" fill="#C1CAE7"/>
<path fill-rule="evenodd" clip-rule="evenodd" d="M254.641 176.979H211.404V107.903C211.404 104.414 214.231 101.586 217.72 101.586H248.324C251.813 101.586 254.641 104.414 254.641 107.903V176.979Z" fill="#E0E8F6"/>
<path fill-rule="evenodd" clip-rule="evenodd" d="M246.911 116.61H219.134C217.881 116.61 216.866 115.595 216.866 114.341C216.866 113.09 217.881 112.074 219.134 112.074H246.911C248.164 112.074 249.18 113.09 249.18 114.341C249.18 115.595 248.164 116.61 246.911 116.61Z" fill="#C1CAE7"/>
<path fill-rule="evenodd" clip-rule="evenodd" d="M246.911 126.554H219.134C217.881 126.554 216.866 125.538 216.866 124.285C216.866 123.032 217.881 122.017 219.134 122.017H246.911C248.164 122.017 249.18 123.032 249.18 124.285C249.18 125.538 248.164 126.554 246.911 126.554Z" fill="#C1CAE7"/>
<path fill-rule="evenodd" clip-rule="evenodd" d="M246.911 136.497H219.134C217.881 136.497 216.866 135.482 216.866 134.228C216.866 132.976 217.881 131.961 219.134 131.961H246.911C248.164 131.961 249.18 132.976 249.18 134.228C249.18 135.482 248.164 136.497 246.911 136.497Z" fill="#C1CAE7"/>
<path fill-rule="evenodd" clip-rule="evenodd" d="M103.77 101.721C100.309 101.721 97.5029 98.9156 97.5029 95.4549V83.9658H74.3057V94.4461H80.375C83.9934 94.4461 86.9264 97.379 86.9264 100.997V173.816H90.3862V132.66C90.3862 128.819 93.4988 125.706 97.3389 125.706H106.466V101.721H103.77Z" fill="#D0DBF0"/>
<path fill-rule="evenodd" clip-rule="evenodd" d="M213.177 71.9863H200.627C199.892 71.9863 199.295 71.3907 199.295 70.6549V64.4738C199.295 63.738 199.892 63.1424 200.627 63.1424H213.177C213.912 63.1424 214.508 63.738 214.508 64.4738V70.6549C214.508 71.3907 213.912 71.9863 213.177 71.9863Z" fill="#E0E8F6"/>
<path fill-rule="evenodd" clip-rule="evenodd" d="M209.268 60.651H204.536V48.3519C204.536 47.8507 204.942 47.4439 205.443 47.4439H208.361C208.862 47.4439 209.268 47.8507 209.268 48.3519V60.651Z" fill="#E0E8F6"/>
<path fill-rule="evenodd" clip-rule="evenodd" d="M221.005 185.414H81.8366C79.8721 185.414 78.2778 183.822 78.2778 181.855C78.2778 179.891 79.8721 178.297 81.8366 178.297H221.005C222.971 178.297 224.564 179.891 224.564 181.855C224.564 183.822 222.971 185.414 221.005 185.414Z" fill="#7E89A0"/>
<path fill-rule="evenodd" clip-rule="evenodd" d="M305.713 191.741C305.713 182.29 298.051 174.626 288.599 174.626H275.563H266.742H42.2869C39.5875 174.626 37.3995 172.439 37.3995 169.74C37.3995 167.04 39.5875 164.852 42.2869 164.852H43.7263V157.513H34.4793C25.0271 157.513 17.3652 165.175 17.3652 174.626C17.3652 184.079 25.0271 191.741 34.4793 191.741H271.485H283.711C286.412 191.741 288.599 193.929 288.599 196.628C288.599 199.327 286.412 201.515 283.711 201.515H274.561H250.504C248.476 201.515 246.833 203.159 246.833 205.186C246.833 207.212 248.476 208.855 250.504 208.855H288.801V208.845C298.159 208.735 305.713 201.125 305.713 191.741Z" fill="#919DB6"/>
<path fill-rule="evenodd" clip-rule="evenodd" d="M232.667 201.515H208.99C206.963 201.515 205.32 203.159 205.32 205.186C205.32 207.212 206.963 208.855 208.99 208.855H232.667C234.694 208.855 236.337 207.212 236.337 205.186C236.337 203.159 234.694 201.515 232.667 201.515Z" fill="#919DB6"/>
<path fill-rule="evenodd" clip-rule="evenodd" d="M122.199 237.232H187.255L199.624 264.72H110.288L122.199 237.232Z" fill="#DCE3ED"/>
<path fill-rule="evenodd" clip-rule="evenodd" d="M110.288 268.385H199.624V264.72H110.288V268.385Z" fill="#B3C5D0"/>
<path fill-rule="evenodd" clip-rule="evenodd" d="M174.957 254.87H147.469C145.318 254.87 143.575 253.127 143.575 250.976C143.575 248.825 145.318 247.082 147.469 247.082H174.957C177.108 247.082 178.851 248.825 178.851 250.976C178.851 253.127 177.108 254.87 174.957 254.87Z" fill="#B3C5D0"/>
<path fill-rule="evenodd" clip-rule="evenodd" d="M158.941 174.195C132.411 174.195 111.558 153.761 111.558 127.762C111.558 101.762 132.41 81.3285 158.941 81.3285C185.471 81.3285 206.323 101.762 206.323 127.762C206.323 153.761 185.47 174.195 158.941 174.195Z" fill="white"/>
<path fill-rule="evenodd" clip-rule="evenodd" d="M158.94 164.55C137.921 164.55 121.401 148.36 121.401 127.762C121.401 107.163 137.921 90.9736 158.94 90.9736C179.96 90.9736 196.48 107.163 196.48 127.762C196.48 148.36 179.959 164.55 158.94 164.55ZM158.94 59.8626C120.832 59.8626 89.6558 90.4156 89.6558 127.762C89.6558 178.686 158.94 253.861 158.94 253.861C158.94 253.861 228.225 178.686 228.225 127.762C228.225 90.4156 197.049 59.8626 158.94 59.8626Z" fill="#F52D56"/>
</g>
<mask id="mask2_708_2356" style="mask-type:luminance" maskUnits="userSpaceOnUse" x="89" y="59" width="70" height="195">
<path fill-rule="evenodd" clip-rule="evenodd" d="M89.6558 59.9225H158.94V253.922H89.6558V59.9225Z" fill="white"/>
</mask>
<g mask="url(#mask2_708_2356)">
<path fill-rule="evenodd" clip-rule="evenodd" d="M158.94 164.61C137.921 164.61 121.401 148.421 121.401 127.823C121.401 107.223 137.921 91.0345 158.94 91.0345C179.96 91.0345 196.48 107.223 196.48 127.823C196.48 148.421 179.959 164.61 158.94 164.61ZM158.94 59.9225C120.832 59.9225 89.6558 90.4765 89.6558 127.823C89.6558 178.747 158.94 253.922 158.94 253.922C158.94 253.922 228.225 178.747 228.225 127.823C228.225 90.4765 197.049 59.9225 158.94 59.9225Z" fill="#FC4974"/>
</g>
<path fill-rule="evenodd" clip-rule="evenodd" d="M161.097 110.671V113.786H163.973V112.108C163.973 110.918 163.007 109.952 161.816 109.952C161.419 109.952 161.097 110.274 161.097 110.671Z" fill="#E9E3D5"/>
<path fill-rule="evenodd" clip-rule="evenodd" d="M182.224 133.141C181.881 132.802 181.706 132.328 181.706 131.845V127.205C181.706 125.339 181.099 123.523 179.979 122.03L174.803 115.128C173.717 113.68 172.012 112.828 170.203 112.828H156.253C154.208 112.828 152.316 113.914 151.285 115.681L146.24 124.33L140.199 125.055C140.014 125.077 139.831 125.107 139.651 125.146L135.122 130.716V135.832C135.122 137.42 136.409 138.708 137.997 138.708H179.883C181.472 138.708 182.759 137.42 182.759 135.832V134.421C182.759 133.94 182.567 133.479 182.224 133.141Z" fill="#FFB545"/>
<path fill-rule="evenodd" clip-rule="evenodd" d="M182.226 133.142C181.881 132.803 181.705 132.329 181.705 131.845V130.081V127.205C181.705 125.414 181.135 123.571 179.979 122.03L174.803 115.128C174.211 114.338 173.433 113.727 172.555 113.333C171.756 114.332 171.7 115.782 172.503 116.853L175.846 121.31L172.891 124.33H175.936C177.514 124.33 178.82 125.596 178.829 127.175V127.205V131.845V131.865C178.831 132.388 178.24 132.702 177.823 132.387C176.501 131.391 174.857 130.8 173.079 130.8C169.731 130.8 166.866 132.89 165.714 135.832H163.973V115.703H161.097V135.832H149.616C148.504 133.295 145.972 131.519 143.029 131.519C140.088 131.519 137.557 133.295 136.445 135.832H135.122C135.122 137.42 136.409 138.708 137.996 138.708H179.883C181.472 138.708 182.759 137.42 182.759 135.832V134.476C182.759 133.979 182.579 133.49 182.226 133.142Z" fill="#FF7E40"/>
<path fill-rule="evenodd" clip-rule="evenodd" d="M155.299 127.924H158.174C158.571 127.924 158.893 127.602 158.893 127.205C158.893 126.808 158.571 126.487 158.174 126.487H155.299C154.901 126.487 154.579 126.808 154.579 127.205C154.579 127.602 154.901 127.924 155.299 127.924Z" fill="#35404A"/>
<path fill-rule="evenodd" clip-rule="evenodd" d="M166.801 127.924H169.676C170.073 127.924 170.395 127.602 170.395 127.205C170.395 126.808 170.073 126.487 169.676 126.487H166.801C166.403 126.487 166.081 126.808 166.081 127.205C166.081 127.602 166.403 127.924 166.801 127.924Z" fill="#35404A"/>
<path fill-rule="evenodd" clip-rule="evenodd" d="M153.77 117.13L149.569 124.33H161.097V115.703H156.254C155.235 115.703 154.283 116.25 153.77 117.13Z" fill="#87F8F4"/>
<path fill-rule="evenodd" clip-rule="evenodd" d="M175.522 120.879L172.503 116.853C171.96 116.128 171.108 115.703 170.202 115.703H163.972V124.33H173.797C174.988 124.33 175.954 123.364 175.954 122.173C175.954 121.707 175.802 121.252 175.522 120.879Z" fill="#87F8F4"/>
<path fill-rule="evenodd" clip-rule="evenodd" d="M179.309 127.205C178.514 127.205 177.871 127.85 177.871 128.643C177.871 129.437 178.514 130.081 179.309 130.081H181.705V127.205H179.309Z" fill="#C5324F"/>
<path fill-rule="evenodd" clip-rule="evenodd" d="M135.909 127.813C135.905 127.82 135.9 127.83 135.896 127.838C135.845 127.924 135.797 128.013 135.751 128.102C135.348 128.892 135.122 129.783 135.122 130.716H136.774C138.363 130.716 139.651 129.429 139.651 127.841V125.146C138.092 125.483 136.72 126.439 135.909 127.813Z" fill="#E9E3D5"/>
<path fill-rule="evenodd" clip-rule="evenodd" d="M143.029 143.739C140.255 143.739 137.997 141.483 137.997 138.707C137.997 135.932 140.255 133.675 143.029 133.675C145.804 133.675 148.061 135.932 148.061 138.707C148.061 141.483 145.804 143.739 143.029 143.739Z" fill="#596775"/>
<path fill-rule="evenodd" clip-rule="evenodd" d="M144.058 133.781C143.468 134.871 143.633 136.262 144.554 137.182L141.505 140.233C140.583 139.311 139.193 139.146 138.104 139.736C138.58 142.019 140.607 143.739 143.029 143.739C145.804 143.739 148.062 141.482 148.062 138.707C148.062 136.285 146.341 134.258 144.058 133.781Z" fill="#35404A"/>
<path fill-rule="evenodd" clip-rule="evenodd" d="M145.186 138.708C145.186 139.899 144.22 140.865 143.029 140.865C141.839 140.865 140.873 139.899 140.873 138.708C140.873 137.516 141.839 136.551 143.029 136.551C144.22 136.551 145.186 137.516 145.186 138.708Z" fill="#E9E3D5"/>
<path fill-rule="evenodd" clip-rule="evenodd" d="M173.078 143.739C170.304 143.739 168.046 141.483 168.046 138.707C168.046 135.932 170.304 133.675 173.078 133.675C175.853 133.675 178.11 135.932 178.11 138.707C178.11 141.483 175.853 143.739 173.078 143.739Z" fill="#596775"/>
<path fill-rule="evenodd" clip-rule="evenodd" d="M174.107 133.781C173.517 134.871 173.682 136.262 174.603 137.182L171.554 140.233C170.632 139.311 169.242 139.146 168.152 139.736C168.629 142.019 170.656 143.739 173.078 143.739C175.853 143.739 178.11 141.482 178.11 138.707C178.11 136.285 176.39 134.258 174.107 133.781Z" fill="#35404A"/>
<path fill-rule="evenodd" clip-rule="evenodd" d="M175.235 138.708C175.235 139.899 174.269 140.865 173.078 140.865C171.888 140.865 170.922 139.899 170.922 138.708C170.922 137.516 171.888 136.551 173.078 136.551C174.269 136.551 175.235 137.516 175.235 138.708Z" fill="#E9E3D5"/>
</svg>
